<?xml version="1.0" encoding="UTF-8" standalone="no"?>
<!-- Created with Inkscape (http://www.inkscape.org/) -->

<svg
   xmlns:dc="http://purl.org/dc/elements/1.1/"
   xmlns:cc="http://creativecommons.org/ns#"
   xmlns:rdf="http://www.w3.org/1999/02/22-rdf-syntax-ns#"
   xmlns:svg="http://www.w3.org/2000/svg"
   xmlns="http://www.w3.org/2000/svg"
   xmlns:sodipodi="http://sodipodi.sourceforge.net/DTD/sodipodi-0.dtd"
   xmlns:inkscape="http://www.inkscape.org/namespaces/inkscape"
   version="1.1"
   id="svg2"
   width="512"
   height="512"
   viewBox="0 0 512 512"
   sodipodi:docname="icons-chinois-sans-frontiere.svg"
   inkscape:version="0.92.5 (2060ec1f9f, 2020-04-08)"
   inkscape:export-filename="/media/yug/b7afba40-86bd-4df2-b20d-fdf572995ff21/2020_JS/csf/images/icons-chinois-sans-frontieres-512.png"
   inkscape:export-xdpi="96"
   inkscape:export-ydpi="96">
  <metadata
     id="metadata8">
    <rdf:RDF>
      <cc:Work
         rdf:about="">
        <dc:format>image/svg+xml</dc:format>
        <dc:type
           rdf:resource="http://purl.org/dc/dcmitype/StillImage" />
        <dc:title />
      </cc:Work>
    </rdf:RDF>
  </metadata>
  <defs
     id="defs6" />
  <sodipodi:namedview
     pagecolor="#ffffff"
     bordercolor="#666666"
     borderopacity="1"
     objecttolerance="10"
     gridtolerance="10"
     guidetolerance="10"
     inkscape:pageopacity="0"
     inkscape:pageshadow="2"
     inkscape:window-width="1920"
     inkscape:window-height="1023"
     id="namedview4"
     showgrid="false"
     inkscape:zoom="0.85908469"
     inkscape:cx="100.11809"
     inkscape:cy="218.5878"
     inkscape:window-x="0"
     inkscape:window-y="25"
     inkscape:window-maximized="1"
     inkscape:current-layer="svg2" />
  <path
     style="opacity:1;fill:#fcaf3e;fill-opacity:1;stroke:none;stroke-width:1.97429478;stroke-linecap:round;stroke-miterlimit:4;stroke-dasharray:0, 1.97429475000000010, 3.94858951000000014, 5.92288425000000007, 7.89717900000000039, 9.87147374999999982, 11.84576850999999920, 13.82006325999999952, 15.79435800999999984, 17.76865275999999838, 19.74294751000000048, 21.71724225999999902, 23.69153701000000112, 25.66583177000000049, 27.64012651000000176;stroke-dashoffset:0;stroke-opacity:1"
     id="path812"
     sodipodi:type="arc"
     sodipodi:cx="256"
     sodipodi:cy="256"
     sodipodi:rx="256"
     sodipodi:ry="256"
     sodipodi:start="0"
     sodipodi:end="6.2422573"
     sodipodi:open="true"
     d="M 512,256 A 256,256 0 0 1 258.61935,511.9866 256,256 0 0 1 0.05360139,261.23842 256,256 0 0 1 248.14306,0.12059786 256,256 0 0 1 511.78562,245.52536" />
  <path
     style="opacity:1;fill:#000000;fill-opacity:1;stroke:none;stroke-width:0.79267138;stroke-linecap:round;stroke-miterlimit:4;stroke-dasharray:0, 0.79267136000000005, 1.58534273999999997, 2.37801410000000013, 3.17068546000000007, 3.96335686000000020, 4.75602820000000026, 5.54869956000000020, 6.34137095999999989, 7.13404229999999995, 7.92671367999999887, 8.71938504000000059, 9.51205642000000040, 10.30472776999999951, 11.09739914999999932;stroke-dashoffset:0;stroke-opacity:1"
     d="m 292.6659,447.68283 c -5.75221,-11.82095 -0.01,-31.30542 -0.0148,-46.95812 -0.0115,-45.25746 0.13225,-52.64651 1.58549,-81.33421 0.62939,-12.42436 4.35359,-40.84259 4.24554,-54.10377 l -0.0801,-9.83611 c -9.42356,-1.72949 -13.2344,-16.47014 -15.43725,-25.26481 -5.46926,-0.60955 -18.03165,18.38615 -23.14488,24.47172 -17.68571,21.06768 -27.28547,30.86706 -40.61942,39.75504 -13.33393,8.88798 -21.42719,14.93846 -28.602,22.05256 -17.38418,17.23705 -28.42072,39.42295 -31.40369,63.12847 -2.1146,23.16056 -1.97157,48.67599 -7.43741,69.88667 -2.10143,8.15482 -9.26529,19.32477 -18.45902,18.50252 -11.76224,-4.17444 -15.64104,-14.06032 -17.65441,-26.81568 -5.12898,-33.87221 -5.37663,-70.83746 4.06626,-100.77317 12.22549,-34.89728 35.3063,-60.96916 57.00501,-85.15133 0.85375,-7.43022 -15.80384,-38.67354 -34.66156,-51.74602 -4.60934,5.47644 -6.97229,10.49292 -8.701,14.36051 -5.22111,12.28842 -20.67962,15.94629 -32.37585,14.16369 -12.525112,-2.40715 -15.05661,-7.85942 -14.677292,-16.12293 0.492447,-10.72811 2.837032,-18.40927 11.497972,-37.70374 22.52685,-47.31148 55.32588,-95.614899 104.521,-108.708028 23.35137,-6.09827 43.31122,-0.0258 58.33916,14.384463 11.54995,11.889315 18.43947,25.762365 22.52991,39.370085 7.60066,23.25521 8.45401,48.07701 6.08268,68.21628 2.00435,1.83742 7.19312,3.50336 9.6101,1.1273 1.32528,-32.12003 1.01142,-60.06756 1.63306,-94.7283 0.7774,-22.517149 -0.0336,-45.077635 0.83566,-67.589099 -0.95806,-8.666761 6.51451,-15.415553 18.82796,-10.734806 17.08367,8.287556 26.06926,26.471307 29.48278,42.893931 5.3283,26.071894 5.01421,54.795894 -0.85006,77.735724 -1.55935,6.09979 -1.58202,6.32187 -1.58654,15.53094 -0.48681,16.41967 1.60557,45.53694 1.60557,45.53694 15.81641,8.39382 59.0941,11.64933 76.2166,23.92834 11.13411,7.98455 20.66674,18.49014 26.9942,29.74942 13.01174,32.11456 3.23313,52.76982 -30.20763,37.88225 -9.6632,-3.18744 -26.48367,-7.98241 -43.35891,-19.05672 -8.97441,-5.4735 -20.71842,-7.11342 -29.67055,-7.72103 -2.18049,18.15587 -1.39327,29.36961 -1.65225,47.50351 2.83358,6.60498 3.00469,12.51414 3.00295,16.43513 -1.00915,15.26314 -8.77926,17.85908 -7.08351,31.63379 2.16933,19.02033 5.46367,40.404 5.50748,57.33955 -3.4e-4,12.02522 -1.38387,21.7907 -4.10241,30.10713 -3.32627,10.17555 -17.1208,28.54912 -25.16679,28.96908 -14.92712,-1.27632 -24.05528,-16.93083 -26.64275,-30.31717 z M 244.54813,157.89752 c -7.23864,-25.18843 -24.5534,-35.17311 -45.97335,-24.86475 -11.22267,5.54616 -29.55206,21.57916 -29.70224,35.30194 6.08017,9.2725 17.60457,17.27657 24.9796,28.38081 6.55566,9.87052 14.83524,33.08196 18.1629,31.56982 19.96064,-12.2716 36.95804,-47.82137 32.53309,-70.38782 z"
     id="path831"
     inkscape:connector-curvature="0"
     sodipodi:nodetypes="ccssccccccscccccccsccccccccccscccccccccccscccccsccc" />
</svg>
